<svg xmlns="http://www.w3.org/2000/svg" data-name="Layer 1" viewBox="0 0 100 125" x="0px" y="0px"><title>Artboard 25</title><circle cx="41" cy="38" r="4"/><circle cx="59" cy="38" r="4"/><path d="M34,66A12,12,0,0,0,22,78a4,4,0,0,0,8,0,4,4,0,0,1,4-4H66a4,4,0,0,1,4,4,4,4,0,0,0,8,0A12,12,0,0,0,66,66H54V58H65A14,14,0,0,0,79,44V32A14,14,0,0,0,65,18H35A14,14,0,0,0,21,32V44A14,14,0,0,0,35,58H46v8Zm1-16a6,6,0,0,1-6-6V32a6,6,0,0,1,6-6H65a6,6,0,0,1,6,6V44a6,6,0,0,1-6,6Z"/><text x="0" y="115" fill="#000000" font-size="5px" font-weight="bold" font-family="'Helvetica Neue', Helvetica, Arial-Unicode, Arial, Sans-serif">Created by Gregor Cresnar</text><text x="0" y="120" fill="#000000" font-size="5px" font-weight="bold" font-family="'Helvetica Neue', Helvetica, Arial-Unicode, Arial, Sans-serif">from the Noun Project</text></svg>